<svg xmlns="http://www.w3.org/2000/svg" width="256" height="256" viewBox="0 0 277 287">
    <path fill="#A0AEC0"
          d="M140.761302,-3.41574468e-13 C143.119412,0.111940939 145.474513,0.280162463 147.824593,0.504520796 L147.824593,0.504520796 L149.842676,0.504520796 L151.860759,1.00904159 L152.36528,1.00904159 L156.401447,1.51356239 L158.41953,1.51356239 L161.951175,2.01808318 L162.455696,2.52260398 L164.473779,2.52260398 L164.473779,3.02712477 L168.509946,3.53164557 C169.692671,3.84840139 170.870048,4.18479505 172.041591,4.54068716 C173.224549,4.85660219 174.401941,5.19299992 175.573237,5.54972875 L175.573237,5.54972875 L177.59132,6.05424955 L177.59132,6.55877034 L179.609403,7.06329114 L181.122966,7.56781193 L182.636528,8.07233273 L183.141049,8.57685353 L184.15009,9.08137432 L184.654611,9.08137432 L185.663653,9.58589512 L186.168174,9.58589512 L187.681736,10.5949367 L188.186257,10.5949367 C189.034899,11.0863863 189.875868,11.5909678 190.708861,12.1084991 L190.708861,12.1084991 L191.213382,12.1084991 L192.222423,12.6130199 L192.726944,13.1175407 L193.735986,13.6220615 L194.240506,13.6220615 L195.249548,14.6311031 L195.754069,14.6311031 L196.76311,15.1356239 L196.76311,15.6401447 L197.772152,16.1446655 L198.276673,16.6491863 C199.125841,17.1397423 199.966824,17.6443324 200.799277,18.1627486 L200.799277,18.1627486 L201.303797,18.1627486 L203.321881,20.1808318 L203.826401,20.1808318 L204.835443,20.6853526 L205.844485,21.6943942 L206.349005,22.198915 L208.367089,24.2169982 L208.871609,24.2169982 L209.880651,25.2260398 C210.914432,26.2100345 211.923781,27.2193832 212.907776,28.2531646 L212.907776,28.2531646 L213.412297,28.7576854 L214.421338,29.2622061 L215.43038,30.7757685 L215.934901,31.2802893 L216.439421,31.7848101 L217.448463,32.7938517 L219.466546,35.3164557 L220.475588,36.8300181 L220.475588,37.3345389 L221.98915,38.8481013 L222.493671,39.8571429 L222.998192,40.3616637 L224.511754,42.3797468 L224.511754,42.8842676 L225.016275,42.8842676 L227.538879,47.9294756 L228.0434,47.9294756 C228.938615,49.7541968 229.779849,51.6049101 230.566004,53.4792043 C237.124774,65.5877034 240.65642,78.2007233 241.665461,90.3092224 L241.665461,90.3092224 L241.665461,90.8137432 L242.169982,97.3725136 L242.169982,95.3544304 L253.77396,86.2730561 C255.287523,83.7504521 257.305606,83.2459313 259.323689,83.2459313 C264.873418,83.2459313 268.909584,90.8137432 268.405063,95.3544304 C269.414105,121.589512 256.801085,136.220615 237.629295,145.80651 L237.629295,145.80651 L237.629295,147.320072 L237.124774,149.338156 L236.115732,152.869801 L235.611212,154.887884 L234.60217,156.905967 C234.287717,158.089328 233.951311,159.266746 233.593128,160.437613 L233.593128,160.437613 L233.088608,162.455696 L232.584087,162.455696 C231.003222,166.446708 229.14891,170.323905 227.034358,174.059675 L227.034358,174.059675 L226.529837,175.573237 C225.877091,176.595436 225.204266,177.604673 224.511754,178.600362 L224.511754,178.600362 L223.502712,180.113924 L220.475588,184.654611 L219.466546,186.168174 L217.952984,187.177215 L217.952984,187.681736 L216.943942,188.690778 L215.934901,190.20434 L214.421338,191.213382 L213.412297,192.726944 L209.880651,196.25859 L208.367089,197.267631 L205.844485,199.790235 L204.330922,200.799277 L202.81736,201.808318 L201.808318,202.81736 L200.294756,203.826401 L198.781193,204.835443 L197.267631,205.844485 L195.754069,206.853526 C177.086799,225.520796 172.041591,250.746835 186.672694,276.981917 C175.573237,273.450271 164.473779,264.368897 163.969259,251.755877 C153.878843,261.341772 164.9783,268.909584 152.36528,274.963834 C156.905967,263.864376 145.80651,258.314647 137.734177,250.242315 C135.211573,258.314647 136.220615,266.891501 142.274864,277.990958 C132.688969,283.036166 104.940325,254.783002 110.490054,235.611212 C105.444846,249.233273 95.8589512,253.77396 81.7323689,249.737794 C96.8679928,237.629295 76.1826401,232.079566 78.7052441,217.448463 C58.0198915,204.330922 64.074141,232.584087 49.9475588,232.079566 C53.9837251,217.448463 34.3074141,207.358047 48.4339964,195.754069 L48.4339964,195.754069 L47.9294756,195.754069 L46.920434,196.25859 L44.9023508,196.25859 L44.39783,196.76311 L42.3797468,196.76311 C41.8753166,196.776627 41.3706147,196.776627 40.8661844,196.76311 L40.8661844,196.76311 L38.8481013,196.25859 L39.8571429,195.754069 L40.3616637,195.249548 L41.875226,193.735986 L42.3797468,192.726944 C43.0128674,191.787494 43.5216216,190.769986 43.8933092,189.699819 L43.8933092,189.699819 L44.39783,189.195298 L44.9023508,186.672694 C44.9297661,185.310012 44.7598314,183.950534 44.39783,182.636528 C43.1628809,182.993978 41.9767168,183.502334 40.8661844,184.15009 C38.9956747,185.03153 37.2894166,186.225911 35.8209765,187.681736 L35.8209765,187.681736 L35.3164557,188.186257 L33.2983725,190.708861 L32.7938517,191.717902 L30.7757685,195.754069 L29.7667269,197.267631 L26.2350814,203.826401 L25.7305606,204.835443 L22.198915,208.871609 C21.2692659,209.521359 20.2493792,210.031302 19.1717902,210.385172 C17.7192607,210.953472 16.1876157,211.293837 14.6311031,211.394213 C12.9366909,211.395908 11.246419,211.226881 9.58589512,210.889693 C11.112851,209.547828 12.4684734,208.022753 13.6220615,206.349005 L13.6220615,206.349005 L14.1265823,205.844485 L14.6311031,205.339964 L14.6311031,204.330922 L16.1446655,201.303797 L16.1446655,200.799277 L16.6491863,200.294756 L16.6491863,199.285714 L17.1537071,195.249548 L17.1537071,183.64557 C17.6582278,179.609403 18.6672694,175.068716 23.2079566,170.528029 L23.2079566,170.528029 L28.7576854,165.482821 C22.5918892,164.988125 16.3925418,165.849145 10.5949367,168.005425 C7.05124525,169.506878 3.6702198,171.366442 0.504520796,173.555154 L0.504520796,173.555154 L3.53164557,169.014467 L5.04520796,166.996383 L6.05424955,166.491863 L6.55877034,165.482821 L7.56781193,164.473779 L8.07233273,163.969259 L9.08137432,162.960217 C11.1340485,161.111613 13.3268675,159.424829 15.6401447,157.915009 L15.6401447,157.915009 L16.6491863,157.410488 C19.3943002,155.835402 22.2626574,154.485587 25.2260398,153.374322 L25.2260398,153.374322 L29.7667269,151.860759 C41.3427023,147.97911 53.8115733,147.627874 65.5877034,150.851718 L65.5877034,150.851718 L65.5877034,151.356239 L66.0922242,151.356239 L68.1103074,151.860759 L69.6238698,152.36528 C70.4610665,152.476404 71.3092771,152.476404 72.1464738,152.36528 C74.1300128,152.141217 76.0320482,151.449568 77.6962025,150.347197 C78.5953443,149.750767 79.4395507,149.075402 80.2188065,148.329114 C81.2365697,147.288866 82.0874774,146.097595 82.7414105,144.797468 L82.7414105,144.797468 L79.2097649,143.788427 L72.6509946,142.274864 L69.119349,141.770344 L65.5877034,140.761302 L64.074141,140.256781 L53.9837251,136.725136 C47.0437171,133.223756 41.2624137,127.792835 37.3345389,121.084991 C35.7965624,118.494894 34.4476646,115.797098 33.2983725,113.012658 L33.2983725,113.012658 L33.2983725,112.003617 C33.135737,110.494423 33.135737,108.972123 33.2983725,107.462929 C33.3187433,106.43475 33.4886993,105.415014 33.8028933,104.435805 L33.8028933,104.435805 L34.3074141,103.426763 L35.3164557,102.417722 C35.7376212,101.970583 36.255288,101.625472 36.8300181,101.40868 C37.497975,101.295775 38.1801444,101.295775 38.8481013,101.40868 L38.8481013,101.40868 L40.3616637,101.40868 L40.8661844,101.913201 C43.8838515,102.62777 46.9112664,103.300529 49.9475588,103.931284 L49.9475588,103.931284 L52.9746835,103.931284 C56.668212,104.21719 60.3699057,104.385449 64.074141,104.435805 C72.5338219,104.803375 81.0065326,104.125558 89.3001808,102.417722 L89.3001808,102.417722 L87.2820976,98.3815552 L84.7594937,92.3273056 C84.1032661,90.3502072 83.5973062,88.3263676 83.2459313,86.2730561 L83.2459313,86.2730561 L82.7414105,87.2820976 L80.7233273,89.8047016 C78.8283056,92.1744832 76.4108858,94.0738845 73.6600362,95.3544304 C71.4219243,96.3823826 69.0400978,97.0629045 66.596745,97.3725136 L66.596745,97.3725136 L62.5605787,97.3725136 C58.0198915,96.8679928 54.4882459,95.3544304 51.4611212,93.840868 L51.4611212,93.840868 L50.4520796,93.3363472 C49.4021564,92.7270914 48.3911613,92.0530947 47.4249548,91.318264 L47.4249548,91.318264 L41.3707052,85.2640145 C39.3718363,82.1573055 37.519889,78.9584873 35.8209765,75.6781193 L35.8209765,75.6781193 L31.2802893,67.1012658 C30.6760028,65.8862573 30.0021911,64.7070868 29.2622061,63.5696203 L29.2622061,63.5696203 L28.7576854,62.5605787 L26.7396022,60.5424955 C24.7977017,58.4671494 22.3705556,56.9068412 19.676311,56.0018083 L19.676311,56.0018083 L16.6491863,55.4972875 L15.6401447,55.4972875 C15.2751548,55.6007471 14.9328646,55.7718922 14.6311031,56.0018083 C14.2351229,56.463923 13.8963288,56.9721141 13.6220615,57.5153707 L13.6220615,57.5153707 L12.6130199,60.0379747 L11.6039783,61.5515371 C10.5949367,62.5605787 9.08137432,63.5696203 6.55877034,64.074141 L6.55877034,64.074141 L6.05424955,64.074141 C5.35157735,64.0643977 4.66075637,63.8916924 4.03616637,63.5696203 L4.03616637,63.5696203 L1.00904159,60.0379747 L0.504520796,58.0198915 L0,56.5063291 L0,50.9566004 C0.532054613,48.580259 1.56397358,46.3444345 3.02712477,44.39783 L3.02712477,44.39783 L5.54972875,41.3707052 L6.05424955,40.8661844 C6.85990212,40.3051668 7.70270734,39.7994837 8.57685353,39.3526221 L8.57685353,39.3526221 L9.08137432,38.8481013 L10.5949367,37.8390597 C12.8682005,37.0750755 15.2619791,36.7331072 17.6582278,36.8300181 C18.3393476,36.9624903 19.0129831,37.1308992 19.676311,37.3345389 C23.0098713,38.0956923 26.2316266,39.2826548 29.2622061,40.8661844 L29.2622061,40.8661844 L30.7757685,41.3707052 L37.3345389,45.4068716 L40.3616637,46.4159132 C46.2638623,49.5306184 52.8612211,51.0931508 59.5334539,50.9566004 L59.5334539,50.9566004 L61.0470163,50.9566004 L62.0560579,48.9385172 C63.9824475,45.091172 66.1739879,41.3824112 68.6148282,37.8390597 C77.7073596,24.5984784 90.2771661,14.1236396 104.940325,7.56781193 C115.770256,3.38265842 127.162611,0.832131142 138.743219,-3.41574468e-13 L138.743219,-3.41574468e-13 Z M142.274864,73.6600362 C116.544304,90.3092224 117.553345,163.969259 190.20434,125.121157 C247.719711,154.887884 246.206148,90.3092224 229.556962,74.6690778 C209.37613,82.7414105 211.394213,115.535262 189.699819,118.562387 C162.455696,117.048825 170.528029,84.7594937 142.274864,73.6600362 Z"
          transform="translate(4 4)"/>
</svg>
